<mxfile host="app.diagrams.net" modified="2023-03-31T02:59:41.568Z" agent="Mozilla/5.0 (Windows NT 10.0; Win64; x64) AppleWebKit/537.36 (KHTML, like Gecko) Chrome/111.0.0.0 Safari/537.36" version="21.1.2" etag="qfwgO9mfznEPOpjjrgcP" type="github">
  <diagram name="第 1 页" id="dDEcE5dftLNCA1X_gDc9">
    <mxGraphModel>
      <root>
        <mxCell id="0" />
        <mxCell id="1" parent="0" />
      </root>
    </mxGraphModel>
  </diagram>
</mxfile>
